<mxfile host="Electron" agent="Mozilla/5.0 (X11; Linux x86_64) AppleWebKit/537.36 (KHTML, like Gecko) draw.io/24.7.17 Chrome/128.0.6613.36 Electron/32.0.1 Safari/537.36" version="24.7.17">
  <diagram name="Page-1" id="L-YIkr6LUHLMMzT8zC4r">
    <mxGraphModel dx="1114" dy="2058" grid="1" gridSize="10" guides="1" tooltips="1" connect="1" arrows="1" fold="1" page="1" pageScale="1" pageWidth="850" pageHeight="1100" math="0" shadow="0">
      <root>
        <mxCell id="0" />
        <mxCell id="1" parent="0" />
        <mxCell id="Genre" value="Genre" style="whiteSpace=wrap;html=1;" parent="1" vertex="1">
          <mxGeometry x="160" y="-70" width="120" height="60" as="geometry" />
        </mxCell>
        <mxCell id="genre_id_genre" value="genre_id" style="ellipse;whiteSpace=wrap;html=1;" parent="1" vertex="1">
          <mxGeometry x="60" width="80" height="40" as="geometry" />
        </mxCell>
        <mxCell id="name_genre" value="name" style="ellipse;whiteSpace=wrap;html=1;" parent="1" vertex="1">
          <mxGeometry x="190" y="40" width="80" height="40" as="geometry" />
        </mxCell>
        <mxCell id="description_genre" value="description" style="ellipse;whiteSpace=wrap;html=1;" parent="1" vertex="1">
          <mxGeometry x="180" y="-160" width="80" height="40" as="geometry" />
        </mxCell>
        <mxCell id="Borrow" value="Borrow" style="whiteSpace=wrap;html=1;" parent="1" vertex="1">
          <mxGeometry x="500" y="-30" width="120" height="60" as="geometry" />
        </mxCell>
        <mxCell id="borrow_id_borrow" value="borrow_id" style="ellipse;whiteSpace=wrap;html=1;" parent="1" vertex="1">
          <mxGeometry x="710" y="60" width="80" height="40" as="geometry" />
        </mxCell>
        <mxCell id="material_id_borrow" value="material_id" style="ellipse;whiteSpace=wrap;html=1;" parent="1" vertex="1">
          <mxGeometry x="530" y="60" width="80" height="40" as="geometry" />
        </mxCell>
        <mxCell id="member_id_borrow" value="member_id" style="ellipse;whiteSpace=wrap;html=1;" parent="1" vertex="1">
          <mxGeometry x="660" y="-10" width="80" height="40" as="geometry" />
        </mxCell>
        <mxCell id="staff_id_borrow" value="staff_id" style="ellipse;whiteSpace=wrap;html=1;" parent="1" vertex="1">
          <mxGeometry x="610" y="40" width="80" height="40" as="geometry" />
        </mxCell>
        <mxCell id="borrow_date_borrow" value="borrow_date" style="ellipse;whiteSpace=wrap;html=1;" parent="1" vertex="1">
          <mxGeometry x="410" y="30" width="80" height="40" as="geometry" />
        </mxCell>
        <mxCell id="due_date_borrow" value="due_date" style="ellipse;whiteSpace=wrap;html=1;" parent="1" vertex="1">
          <mxGeometry x="580" y="110" width="80" height="40" as="geometry" />
        </mxCell>
        <mxCell id="return_date_borrow" value="return_date" style="ellipse;whiteSpace=wrap;html=1;" parent="1" vertex="1">
          <mxGeometry x="640" y="-80" width="80" height="40" as="geometry" />
        </mxCell>
        <mxCell id="Author" value="Author" style="whiteSpace=wrap;html=1;" parent="1" vertex="1">
          <mxGeometry x="660" y="240" width="120" height="60" as="geometry" />
        </mxCell>
        <mxCell id="author_id_author" value="author_id" style="ellipse;whiteSpace=wrap;html=1;" parent="1" vertex="1">
          <mxGeometry x="720" y="380" width="80" height="40" as="geometry" />
        </mxCell>
        <mxCell id="name_author" value="name" style="ellipse;whiteSpace=wrap;html=1;" parent="1" vertex="1">
          <mxGeometry x="560" y="260" width="80" height="40" as="geometry" />
        </mxCell>
        <mxCell id="birth_date_author" value="birth_date" style="ellipse;whiteSpace=wrap;html=1;" parent="1" vertex="1">
          <mxGeometry x="650" y="320" width="80" height="40" as="geometry" />
        </mxCell>
        <mxCell id="nationality_author" value="nationality" style="ellipse;whiteSpace=wrap;html=1;" parent="1" vertex="1">
          <mxGeometry x="750" y="320" width="80" height="40" as="geometry" />
        </mxCell>
        <mxCell id="Authorship" value="Authorship" style="whiteSpace=wrap;html=1;" parent="1" vertex="1">
          <mxGeometry x="140" y="240" width="120" height="60" as="geometry" />
        </mxCell>
        <mxCell id="authorship_id_authorship" value="authorship_id" style="ellipse;whiteSpace=wrap;html=1;" parent="1" vertex="1">
          <mxGeometry x="40" y="220" width="80" height="40" as="geometry" />
        </mxCell>
        <mxCell id="author_id_authorship" value="author_id" style="ellipse;whiteSpace=wrap;html=1;" parent="1" vertex="1">
          <mxGeometry x="50" y="270" width="80" height="40" as="geometry" />
        </mxCell>
        <mxCell id="material_id_authorship" value="material_id" style="ellipse;whiteSpace=wrap;html=1;" parent="1" vertex="1">
          <mxGeometry x="280" y="240" width="80" height="40" as="geometry" />
        </mxCell>
        <mxCell id="Member" value="Member" style="whiteSpace=wrap;html=1;" parent="1" vertex="1">
          <mxGeometry x="490" y="400" width="120" height="60" as="geometry" />
        </mxCell>
        <mxCell id="member_id_member" value="member_id" style="ellipse;whiteSpace=wrap;html=1;" parent="1" vertex="1">
          <mxGeometry x="560" y="490" width="80" height="40" as="geometry" />
        </mxCell>
        <mxCell id="name_member" value="name" style="ellipse;whiteSpace=wrap;html=1;" parent="1" vertex="1">
          <mxGeometry x="620" y="450" width="80" height="40" as="geometry" />
        </mxCell>
        <mxCell id="contact_info_member" value="contact_info" style="ellipse;whiteSpace=wrap;html=1;" parent="1" vertex="1">
          <mxGeometry x="400" y="420" width="80" height="40" as="geometry" />
        </mxCell>
        <mxCell id="join_date_member" value="join_date" style="ellipse;whiteSpace=wrap;html=1;" parent="1" vertex="1">
          <mxGeometry x="470" y="490" width="80" height="40" as="geometry" />
        </mxCell>
        <mxCell id="Staff" value="Staff" style="whiteSpace=wrap;html=1;" parent="1" vertex="1">
          <mxGeometry x="120" y="570" width="120" height="60" as="geometry" />
        </mxCell>
        <mxCell id="staff_id_staff" value="staff_id" style="ellipse;whiteSpace=wrap;html=1;" parent="1" vertex="1">
          <mxGeometry x="30" y="570" width="80" height="40" as="geometry" />
        </mxCell>
        <mxCell id="name_staff" value="name" style="ellipse;whiteSpace=wrap;html=1;" parent="1" vertex="1">
          <mxGeometry x="140" y="650" width="80" height="40" as="geometry" />
        </mxCell>
        <mxCell id="contact_info_staff" value="contact_info" style="ellipse;whiteSpace=wrap;html=1;" parent="1" vertex="1">
          <mxGeometry x="220" y="650" width="80" height="40" as="geometry" />
        </mxCell>
        <mxCell id="job_title_staff" value="job_title" style="ellipse;whiteSpace=wrap;html=1;" parent="1" vertex="1">
          <mxGeometry x="260" y="570" width="80" height="40" as="geometry" />
        </mxCell>
        <mxCell id="hire_date_staff" value="hire_date" style="ellipse;whiteSpace=wrap;html=1;" parent="1" vertex="1">
          <mxGeometry x="60" y="660" width="80" height="40" as="geometry" />
        </mxCell>
        <mxCell id="9vry_f9opfhHnE125gh5-4" value="" style="endArrow=none;html=1;rounded=0;entryX=0;entryY=0.5;entryDx=0;entryDy=0;exitX=0.5;exitY=0;exitDx=0;exitDy=0;" parent="1" source="genre_id_genre" target="Genre" edge="1">
          <mxGeometry width="50" height="50" relative="1" as="geometry">
            <mxPoint x="400" y="230" as="sourcePoint" />
            <mxPoint x="450" y="180" as="targetPoint" />
          </mxGeometry>
        </mxCell>
        <mxCell id="9vry_f9opfhHnE125gh5-5" value="" style="endArrow=none;html=1;rounded=0;entryX=0.5;entryY=1;entryDx=0;entryDy=0;exitX=0.5;exitY=0;exitDx=0;exitDy=0;" parent="1" source="name_genre" target="Genre" edge="1">
          <mxGeometry width="50" height="50" relative="1" as="geometry">
            <mxPoint x="450" y="-40" as="sourcePoint" />
            <mxPoint x="510" y="-80" as="targetPoint" />
          </mxGeometry>
        </mxCell>
        <mxCell id="9vry_f9opfhHnE125gh5-6" value="" style="endArrow=none;html=1;rounded=0;entryX=0.5;entryY=1;entryDx=0;entryDy=0;exitX=0.5;exitY=0;exitDx=0;exitDy=0;" parent="1" source="Genre" target="description_genre" edge="1">
          <mxGeometry width="50" height="50" relative="1" as="geometry">
            <mxPoint x="400" y="230" as="sourcePoint" />
            <mxPoint x="450" y="180" as="targetPoint" />
          </mxGeometry>
        </mxCell>
      </root>
    </mxGraphModel>
  </diagram>
</mxfile>
